# xmcd
#
# Track frame offsets: 
#        150
#        13249
#        24526
#        35556
#        46165
#        61417
#        81637
#        108866
#        120782
#        132161
#        144698
#        172986
#        184683
#        203086
#
# Disc length: 2858 seconds
#
# Revision: 3
# Processed by: cddbd v1.5.2PL0 Copyright (c) Steve Scherf et al.
# Submitted via: ExactAudioCopy v0.99pb5
#
DISCID=ba0b280e
DTITLE=Nine Below Zero - Live At The Marquee
DYEAR=1980
DGENRE=Blues
TTITLE0=Tore Down
TTITLE1=Straighten Her Out
TTITLE2=Homework
TTITLE3=I Can't Help Myself
TTITLE4=Can I Get A Witness
TTITLE5=Ridin' On The L&N
TTITLE6=I Can't Quit You Baby
TTITLE7=Stop Your Naggin'
TTITLE8=Hootchie Cootchie Coo
TTITLE9=Woolly Bully
TTITLE10=Got My Mojo Working
TTITLE11=Pack Fair and Square
TTITLE12=Watch Yourself
TTITLE13=Swing Job
EXTD=
EXTT0=
EXTT1=
EXTT2=
EXTT3=
EXTT4=
EXTT5=
EXTT6=
EXTT7=
EXTT8=
EXTT9=
EXTT10=
EXTT11=
EXTT12=
EXTT13=
PLAYORDER=
